<svg width="94" height="89" viewBox="0 0 94 89" fill="none" xmlns="http://www.w3.org/2000/svg">
<path d="M0.333252 89V79.6666H42.3333V27.5166C40.311 26.8166 38.561 25.7278 37.0833 24.25C35.6055 22.7722 34.5166 21.0222 33.8166 19H18.9999L32.9999 51.6666C32.9999 55.5555 31.4055 58.8611 28.2166 61.5833C25.0277 64.3055 21.1777 65.6666 16.6666 65.6666C12.1555 65.6666 8.30547 64.3055 5.11659 61.5833C1.9277 58.8611 0.333252 55.5555 0.333252 51.6666L14.3333 19H4.99992V9.66665H33.8166C34.7499 6.94442 36.4221 4.70831 38.8333 2.95831C41.2444 1.20831 43.9666 0.333313 46.9999 0.333313C50.0333 0.333313 52.7555 1.20831 55.1666 2.95831C57.5777 4.70831 59.2499 6.94442 60.1833 9.66665H88.9999V19H79.6666L93.6666 51.6666C93.6666 55.5555 92.0722 58.8611 88.8833 61.5833C85.6944 64.3055 81.8444 65.6666 77.3333 65.6666C72.8221 65.6666 68.9721 64.3055 65.7833 61.5833C62.5944 58.8611 60.9999 55.5555 60.9999 51.6666L74.9999 19H60.1833C59.4833 21.0222 58.3944 22.7722 56.9166 24.25C55.4388 25.7278 53.6888 26.8166 51.6666 27.5166V79.6666H93.6666V89H0.333252ZM68.5833 51.6666H86.0833L77.3333 31.3666L68.5833 51.6666ZM7.91659 51.6666H25.4166L16.6666 31.3666L7.91659 51.6666ZM46.9999 19C48.3221 19 49.4305 18.5528 50.3249 17.6583C51.2194 16.7639 51.6666 15.6555 51.6666 14.3333C51.6666 13.0111 51.2194 11.9028 50.3249 11.0083C49.4305 10.1139 48.3221 9.66665 46.9999 9.66665C45.6777 9.66665 44.5694 10.1139 43.6749 11.0083C42.7805 11.9028 42.3333 13.0111 42.3333 14.3333C42.3333 15.6555 42.7805 16.7639 43.6749 17.6583C44.5694 18.5528 45.6777 19 46.9999 19Z" fill="#1C1B1F"/>
</svg>
