<svg width="94" height="89" viewBox="0 0 94 89" fill="none" xmlns="http://www.w3.org/2000/svg">
<path d="M9.66671 89C7.10004 89 4.90282 88.0862 3.07504 86.2584C1.24726 84.4306 0.333374 82.2334 0.333374 79.6667V28.3334C0.333374 25.7667 1.24726 23.5695 3.07504 21.7417C4.90282 19.9139 7.10004 19 9.66671 19H28.3334V9.66671C28.3334 7.10004 29.2473 4.90282 31.075 3.07504C32.9028 1.24726 35.1 0.333374 37.6667 0.333374H56.3334C58.9 0.333374 61.0973 1.24726 62.925 3.07504C64.7528 4.90282 65.6667 7.10004 65.6667 9.66671V19H84.3334C86.9 19 89.0973 19.9139 90.925 21.7417C92.7528 23.5695 93.6667 25.7667 93.6667 28.3334V79.6667C93.6667 82.2334 92.7528 84.4306 90.925 86.2584C89.0973 88.0862 86.9 89 84.3334 89H9.66671ZM37.6667 19H56.3334V9.66671H37.6667V19ZM84.3334 61H61V70.3334H33V61H9.66671V79.6667H84.3334V61ZM42.3334 61H51.6667V51.6667H42.3334V61ZM9.66671 51.6667H33V42.3334H61V51.6667H84.3334V28.3334H9.66671V51.6667Z" fill="#1C1B1F"/>
</svg>
