<svg width="84" height="94" viewBox="0 0 84 94" fill="none" xmlns="http://www.w3.org/2000/svg">
<path d="M14 93.6667C10.1111 93.6667 6.80556 92.3055 4.08333 89.5833C1.36111 86.8611 0 83.5555 0 79.6666V65.6666H14V0.333313H84V79.6666C84 83.5555 82.6389 86.8611 79.9167 89.5833C77.1944 92.3055 73.8889 93.6667 70 93.6667H14ZM70 84.3333C71.3222 84.3333 72.4306 83.8861 73.325 82.9917C74.2194 82.0972 74.6667 80.9889 74.6667 79.6666V9.66665H23.3333V65.6666H65.3333V79.6666C65.3333 80.9889 65.7806 82.0972 66.675 82.9917C67.5694 83.8861 68.6778 84.3333 70 84.3333ZM28 33V23.6666H70V33H28ZM28 47V37.6666H70V47H28ZM14 84.3333H56V75H9.33333V79.6666C9.33333 80.9889 9.78056 82.0972 10.675 82.9917C11.5694 83.8861 12.6778 84.3333 14 84.3333ZM14 84.3333H9.33333H56H14Z" fill="#1C1B1F"/>
</svg>
