<svg width="104" height="76" viewBox="0 0 104 76" fill="none" xmlns="http://www.w3.org/2000/svg">
<path d="M0.666748 75.3333V56.6666C0.666748 54.0222 1.58064 51.8055 3.40841 50.0166C5.23619 48.2277 7.43341 47.3333 10.0001 47.3333H25.2834C26.839 47.3333 28.3167 47.7222 29.7167 48.5C31.1167 49.2777 32.2445 50.3277 33.1001 51.65C35.3556 54.6833 38.1362 57.0555 41.4417 58.7666C44.7473 60.4777 48.2667 61.3333 52.0001 61.3333C55.8112 61.3333 59.3695 60.4777 62.6751 58.7666C65.9806 57.0555 68.7223 54.6833 70.9001 51.65C71.9112 50.3277 73.0973 49.2777 74.4584 48.5C75.8195 47.7222 77.239 47.3333 78.7167 47.3333H94.0001C96.6445 47.3333 98.8612 48.2277 100.65 50.0166C102.439 51.8055 103.333 54.0222 103.333 56.6666V75.3333H70.6667V64.7166C67.9445 66.6611 65.0084 68.1388 61.8584 69.15C58.7084 70.1611 55.4223 70.6666 52.0001 70.6666C48.6556 70.6666 45.389 70.1416 42.2001 69.0916C39.0112 68.0416 36.0556 66.5444 33.3334 64.6V75.3333H0.666748ZM52.0001 56.6666C49.0445 56.6666 46.2445 55.9861 43.6001 54.625C40.9556 53.2638 38.739 51.3777 36.9501 48.9666C35.6279 47.0222 33.9751 45.4861 31.9917 44.3583C30.0084 43.2305 27.8501 42.6666 25.5167 42.6666C27.2279 39.7888 30.8445 37.5138 36.3667 35.8416C41.889 34.1694 47.1001 33.3333 52.0001 33.3333C56.9001 33.3333 62.1112 34.1694 67.6334 35.8416C73.1556 37.5138 76.7723 39.7888 78.4834 42.6666C76.2279 42.6666 74.089 43.2305 72.0667 44.3583C70.0445 45.4861 68.3723 47.0222 67.0501 48.9666C65.339 51.4555 63.1612 53.3611 60.5167 54.6833C57.8723 56.0055 55.0334 56.6666 52.0001 56.6666ZM14.6667 42.6666C10.7779 42.6666 7.4723 41.3055 4.75008 38.5833C2.02786 35.8611 0.666748 32.5555 0.666748 28.6666C0.666748 24.7 2.02786 21.375 4.75008 18.6916C7.4723 16.0083 10.7779 14.6666 14.6667 14.6666C18.6334 14.6666 21.9584 16.0083 24.6417 18.6916C27.3251 21.375 28.6667 24.7 28.6667 28.6666C28.6667 32.5555 27.3251 35.8611 24.6417 38.5833C21.9584 41.3055 18.6334 42.6666 14.6667 42.6666ZM89.3334 42.6666C85.4445 42.6666 82.139 41.3055 79.4167 38.5833C76.6945 35.8611 75.3334 32.5555 75.3334 28.6666C75.3334 24.7 76.6945 21.375 79.4167 18.6916C82.139 16.0083 85.4445 14.6666 89.3334 14.6666C93.3001 14.6666 96.6251 16.0083 99.3084 18.6916C101.992 21.375 103.333 24.7 103.333 28.6666C103.333 32.5555 101.992 35.8611 99.3084 38.5833C96.6251 41.3055 93.3001 42.6666 89.3334 42.6666ZM52.0001 28.6666C48.1112 28.6666 44.8056 27.3055 42.0834 24.5833C39.3612 21.8611 38.0001 18.5555 38.0001 14.6666C38.0001 10.7 39.3612 7.37496 42.0834 4.69163C44.8056 2.00829 48.1112 0.666626 52.0001 0.666626C55.9667 0.666626 59.2917 2.00829 61.9751 4.69163C64.6584 7.37496 66.0001 10.7 66.0001 14.6666C66.0001 18.5555 64.6584 21.8611 61.9751 24.5833C59.2917 27.3055 55.9667 28.6666 52.0001 28.6666Z" fill="#1C1B1F"/>
</svg>
