<svg width="94" height="99" viewBox="0 0 94 99" fill="none" xmlns="http://www.w3.org/2000/svg">
<path d="M9.33333 9.66671V37.7834V37.6667V84.3334V9.66671ZM9.33333 93.6667C6.76667 93.6667 4.56945 92.7528 2.74167 90.925C0.913889 89.0973 0 86.9 0 84.3334V9.66671C0 7.10004 0.913889 4.90282 2.74167 3.07504C4.56945 1.24726 6.76667 0.333374 9.33333 0.333374H46.6667L74.6667 28.3334V40C73.1889 39.3778 71.6722 38.8917 70.1167 38.5417C68.5611 38.1917 66.9667 37.9389 65.3333 37.7834V33H42V9.66671H9.33333V84.3334H37.45C38.6945 86.2 40.0944 87.9306 41.65 89.525C43.2056 91.1195 44.9167 92.5 46.7833 93.6667H9.33333ZM63 79.6667C66.2667 79.6667 69.0278 78.5389 71.2833 76.2834C73.5389 74.0278 74.6667 71.2667 74.6667 68C74.6667 64.7334 73.5389 61.9723 71.2833 59.7167C69.0278 57.4612 66.2667 56.3334 63 56.3334C59.7333 56.3334 56.9722 57.4612 54.7167 59.7167C52.4611 61.9723 51.3333 64.7334 51.3333 68C51.3333 71.2667 52.4611 74.0278 54.7167 76.2834C56.9722 78.5389 59.7333 79.6667 63 79.6667ZM86.8 98.3334L74.2 85.7334C72.5667 86.8223 70.7972 87.6389 68.8917 88.1834C66.9861 88.7278 65.0222 89 63 89C57.1667 89 52.2083 86.9584 48.125 82.875C44.0417 78.7917 42 73.8334 42 68C42 62.1667 44.0417 57.2084 48.125 53.125C52.2083 49.0417 57.1667 47 63 47C68.8333 47 73.7917 49.0417 77.875 53.125C81.9583 57.2084 84 62.1667 84 68C84 70.0223 83.7278 71.9861 83.1833 73.8917C82.6389 75.7973 81.8222 77.5667 80.7333 79.2L93.3333 91.8L86.8 98.3334Z" fill="#1C1B1F"/>
</svg>
