<svg width="78" height="78" viewBox="0 0 78 78" fill="none" xmlns="http://www.w3.org/2000/svg">
<path d="M51.1875 39C51.1875 42.2323 49.9035 45.3323 47.6179 47.6179C45.3323 49.9035 42.2323 51.1875 39 51.1875C35.7677 51.1875 32.6677 49.9035 30.3821 47.6179C28.0965 45.3323 26.8125 42.2323 26.8125 39C26.8152 38.304 26.8816 37.6269 27.0116 36.9688H22.75V53.2066C22.75 54.3359 23.6641 55.25 24.7934 55.25H53.2106C53.7519 55.2489 54.2706 55.0332 54.6529 54.6501C55.0353 54.267 55.25 53.7478 55.25 53.2066V36.9688H50.9884C51.1184 37.6269 51.1848 38.304 51.1875 39ZM39 47.125C40.0673 47.1247 41.124 46.9143 42.1099 46.5056C43.0958 46.0969 43.9916 45.4981 44.7461 44.7432C45.5006 43.9884 46.099 43.0923 46.5071 42.1062C46.9153 41.1201 47.1253 40.0632 47.125 38.9959C47.1247 37.9287 46.9143 36.8719 46.5056 35.886C46.0969 34.9001 45.4981 34.0043 44.7432 33.2499C43.9884 32.4954 43.0923 31.897 42.1062 31.4888C41.1201 31.0806 40.0632 30.8707 38.9959 30.8709C36.8405 30.8715 34.7736 31.7282 33.2499 33.2527C31.7261 34.7772 30.8704 36.8446 30.8709 39C30.8715 41.1554 31.7282 43.2224 33.2527 44.7461C34.7772 46.2698 36.8446 47.1255 39 47.125ZM48.75 30.4688H53.6209C53.7813 30.4693 53.9402 30.4382 54.0886 30.3771C54.2369 30.3161 54.3717 30.2264 54.4854 30.1132C54.599 30 54.6891 29.8655 54.7506 29.7173C54.8121 29.5692 54.8438 29.4104 54.8438 29.25V24.3791C54.8443 24.2183 54.813 24.0591 54.7518 23.9105C54.6905 23.7619 54.6005 23.6269 54.4868 23.5132C54.3731 23.3996 54.2381 23.3095 54.0895 23.2482C53.9409 23.187 53.7817 23.1557 53.6209 23.1562H48.75C48.5893 23.1557 48.43 23.187 48.2814 23.2482C48.1328 23.3095 47.9978 23.3996 47.8841 23.5132C47.7705 23.6269 47.6804 23.7619 47.6192 23.9105C47.5579 24.0591 47.5267 24.2183 47.5272 24.3791V29.25C47.5312 29.9203 48.0797 30.4688 48.75 30.4688ZM39 0C28.6566 0 18.7368 4.10892 11.4228 11.4228C4.10892 18.7368 0 28.6566 0 39C0 49.3434 4.10892 59.2632 11.4228 66.5772C18.7368 73.8911 28.6566 78 39 78C44.1216 78 49.193 76.9912 53.9247 75.0313C58.6564 73.0714 62.9557 70.1987 66.5772 66.5772C70.1987 62.9557 73.0714 58.6564 75.0313 53.9247C76.9912 49.193 78 44.1216 78 39C78 33.8784 76.9912 28.807 75.0313 24.0753C73.0714 19.3436 70.1987 15.0443 66.5772 11.4228C62.9557 7.80135 58.6564 4.92863 53.9247 2.9687C49.193 1.00876 44.1216 0 39 0ZM59.3125 54.7991C59.3125 57.2812 57.2812 59.3125 54.7991 59.3125H23.2009C20.7188 59.3125 18.6875 57.2812 18.6875 54.7991V23.2009C18.6875 20.7188 20.7188 18.6875 23.2009 18.6875H54.7991C57.2812 18.6875 59.3125 20.7188 59.3125 23.2009V54.7991Z" fill="black" fill-opacity="0.8"/>
</svg>
