<svg width="24" height="16" viewBox="0 0 24 16" fill="none" xmlns="http://www.w3.org/2000/svg">
<path d="M2.56067 16C1.91742 16 1.36675 15.8042 0.908672 15.4125C0.450596 15.0208 0.221558 14.55 0.221558 14V2C0.221558 1.45 0.450596 0.979167 0.908672 0.5875C1.36675 0.195833 1.91742 0 2.56067 0H21.2736C21.9168 0 22.4675 0.195833 22.9256 0.5875C23.3837 0.979167 23.6127 1.45 23.6127 2V14C23.6127 14.55 23.3837 15.0208 22.9256 15.4125C22.4675 15.8042 21.9168 16 21.2736 16H2.56067ZM11.9171 9L2.56067 4V14H21.2736V4L11.9171 9ZM11.9171 7L21.2736 2H2.56067L11.9171 7ZM2.56067 4V2V14V4Z" fill="#C32D2D"/>
</svg>
