<svg width="80" height="80" viewBox="0 0 80 80" fill="none" xmlns="http://www.w3.org/2000/svg">
<path d="M39.9999 0.639999C18.2617 0.639999 0.639893 18.2618 0.639893 40C0.639893 61.7382 18.2617 79.36 39.9999 79.36C61.7381 79.36 79.3599 61.7382 79.3599 40C79.3599 18.2618 61.7381 0.639999 39.9999 0.639999ZM56.0104 32.8824C56.0241 33.2186 56.0309 33.5521 56.0309 33.8828C56.0309 44.1328 48.2368 55.9449 33.977 55.9449C29.7636 55.9507 25.6379 54.7407 22.0952 52.4599C22.6993 52.531 23.3156 52.5651 23.9443 52.5624C27.5769 52.5624 30.9184 51.3283 33.5711 49.2455C31.9545 49.2138 30.3881 48.6785 29.0902 47.7142C27.7924 46.75 26.8276 45.4049 26.3305 43.8663C27.4914 44.0871 28.6874 44.0408 29.8278 43.731C28.0725 43.3776 26.4937 42.4273 25.3598 41.0415C24.226 39.6558 23.607 37.9201 23.6081 36.1296V36.0353C24.6536 36.6134 25.8508 36.966 27.1218 37.007C25.4769 35.912 24.3124 34.2299 23.8666 32.3048C23.4207 30.3797 23.7272 28.357 24.7233 26.6504C26.6713 29.044 29.0999 31.0023 31.8521 32.3985C34.6043 33.7947 37.6189 34.5979 40.701 34.7561C40.3091 33.0928 40.4778 31.3466 41.1807 29.789C41.8837 28.2314 43.0815 26.9497 44.5881 26.1431C46.0946 25.3365 47.8254 25.0503 49.5115 25.3289C51.1975 25.6074 52.7442 26.4353 53.9112 27.6836C55.6461 27.3401 57.3099 26.7037 58.8312 25.8017C58.2529 27.598 57.0423 29.1234 55.4241 30.0944C56.961 29.9092 58.4616 29.4961 59.8767 28.8685C58.8396 30.428 57.5299 31.7877 56.0104 32.8824Z" fill="black" fill-opacity="0.8"/>
</svg>
